<?xml version="1.0" encoding="utf-8"?>
<!-- Generator: Adobe Illustrator 19.0.0, SVG Export Plug-In . SVG Version: 6.00 Build 0)  -->
<svg version="1.1" id="Layer_1" xmlns="http://www.w3.org/2000/svg" xmlns:xlink="http://www.w3.org/1999/xlink" x="0px" y="0px"
	 viewBox="0 0 384.4 201.8" style="enable-background:new 0 0 384.4 201.8;" xml:space="preserve">
<style type="text/css">
	.st0{fill-rule:evenodd;clip-rule:evenodd;fill:#B4915C;}
	.st1{fill:#B4915C;}
	.st2{fill:#FFFFFF;}
	.st3{fill-rule:evenodd;clip-rule:evenodd;fill:#FFFFFF;}
</style>
<g id="Logo_x5F_02_5_">
	<path id="XMLID_610_" class="st0" d="M116.8,13.4c0-0.2,0.3-0.4,0.5-0.4c0.2,0,0.4,0.1,0.5,0.3l2.2,4.8c0.1,0.2,0.3,0.3,0.6,0.3
		l5.1-0.6c0.2,0,0.5,0,0.6,0.2c0.1,0.2,0,0.5-0.2,0.6l-3.8,3.5c-0.2,0.2-0.3,0.4-0.2,0.6l2.2,4.9c0,0.2,0.1,0.5-0.2,0.6
		c-0.1,0.2-0.4,0.2-0.6,0.1l-4.4-2.6c-0.2-0.1-0.5-0.1-0.6,0.1l-3.7,3.6c-0.1,0.2-0.3,0.2-0.6,0.1c-0.2-0.1-0.3-0.3-0.2-0.5l0.9-5.2
		c0.1-0.2,0-0.4-0.2-0.5l-4.6-2.5c-0.2-0.1-0.3-0.3-0.2-0.6c0-0.2,0.2-0.3,0.4-0.4l5.2-0.7c0.2,0,0.4-0.2,0.4-0.4L116.8,13.4
		L116.8,13.4z M267.7,13.4L267.7,13.4c-0.1-0.2-0.3-0.4-0.5-0.4c-0.2,0-0.4,0.1-0.5,0.3l-2.2,4.8c-0.1,0.2-0.3,0.3-0.6,0.3l-5.1-0.6
		c-0.2,0-0.5,0-0.6,0.3c-0.1,0.2,0,0.5,0.2,0.6l3.8,3.5c0.2,0.2,0.3,0.4,0.2,0.6l-2.2,4.9c0,0.2-0.1,0.5,0.2,0.6
		c0.1,0.2,0.4,0.2,0.6,0.1l4.4-2.6c0.2-0.1,0.5-0.1,0.6,0.1l3.7,3.6c0.1,0.2,0.3,0.2,0.6,0.1c0.2-0.1,0.3-0.3,0.2-0.5l-0.9-5.2
		c-0.1-0.2,0-0.4,0.2-0.5l4.6-2.5c0.2-0.1,0.3-0.3,0.2-0.6c0-0.2-0.2-0.3-0.4-0.4L269,19c-0.2,0-0.4-0.2-0.4-0.4L267.7,13.4
		L267.7,13.4z M239.5,4.6L239.5,4.6c-0.1-0.3-0.3-0.6-0.6-0.6c-0.3,0-0.6,0.2-0.7,0.5l-2.7,6.8c-0.2,0.3-0.4,0.5-0.7,0.5l-7.2-0.5
		c-0.3-0.1-0.6,0.1-0.7,0.4c-0.1,0.3,0,0.6,0.2,0.8l5.5,4.7c0.3,0.2,0.3,0.5,0.2,0.8l-2.7,6.8c-0.1,0.2,0,0.5,0.2,0.8
		c0.2,0.2,0.5,0.2,0.7,0l6-3.9c0.2-0.2,0.6-0.2,0.8,0.1l5.4,4.8c0.2,0.2,0.5,0.2,0.8,0.1c0.2-0.2,0.3-0.5,0.3-0.7l-1.6-7.2
		c0-0.3,0.1-0.6,0.4-0.7l6.2-3.8c0.2-0.1,0.3-0.4,0.3-0.7c0-0.3-0.3-0.6-0.6-0.5l-7.2-0.6c-0.3,0-0.5-0.3-0.6-0.6L239.5,4.6
		L239.5,4.6z M289.8,21.1L289.8,21.1c-0.1-0.2-0.2-0.3-0.3-0.3c-0.1,0-0.2,0-0.3,0.2l-1.7,3.3c-0.1,0.1-0.2,0.3-0.4,0.2l-3.6-0.5
		c-0.2,0-0.3,0-0.4,0.2c0,0.1,0,0.3,0.1,0.4l2.5,2.6c0.1,0.1,0.2,0.3,0.1,0.4l-1.6,3.3c-0.1,0.1,0,0.3,0.1,0.5
		c0.1,0.1,0.2,0.1,0.4,0.1l3.3-1.8c0.1-0.1,0.2,0,0.4,0.1l2.6,2.7c0.1,0.1,0.2,0.1,0.4,0.1c0.2-0.1,0.2-0.3,0.2-0.4l-0.5-3.7
		c0-0.2,0-0.3,0.1-0.4l3.3-1.7c0.2,0,0.2-0.2,0.2-0.4c0-0.2-0.2-0.3-0.3-0.3l-3.6-0.6c-0.1,0-0.3-0.2-0.2-0.4L289.8,21.1L289.8,21.1
		z M144.9,4.6L144.9,4.6c0.1-0.3,0.3-0.6,0.6-0.6c0.3,0,0.6,0.2,0.7,0.5l2.7,6.8c0.2,0.3,0.4,0.5,0.7,0.5l7.2-0.5
		c0.3-0.1,0.6,0.1,0.7,0.4c0.1,0.3,0,0.6-0.2,0.8l-5.5,4.7c-0.3,0.2-0.3,0.5-0.3,0.8l2.7,6.8c0.1,0.2,0,0.5-0.2,0.8
		c-0.2,0.2-0.5,0.2-0.7,0l-6-3.9c-0.2-0.2-0.6-0.2-0.8,0.1l-5.4,4.7c-0.2,0.2-0.5,0.2-0.8,0.1c-0.2-0.2-0.3-0.5-0.3-0.7l1.6-7.2
		c0.1-0.3,0-0.6-0.4-0.7l-6.2-3.8c-0.2-0.1-0.3-0.4-0.3-0.8c0-0.3,0.3-0.6,0.6-0.5l7.2-0.6c0.3,0,0.5-0.3,0.6-0.6L144.9,4.6
		L144.9,4.6z M94.6,21.1L94.6,21.1c0.1-0.2,0.2-0.3,0.3-0.3c0.1,0,0.2,0,0.3,0.2l1.7,3.3c0.1,0.1,0.2,0.3,0.4,0.2l3.6-0.5
		c0.1,0,0.3,0,0.4,0.2c0,0.2,0,0.3-0.1,0.4l-2.5,2.6c-0.1,0.1-0.2,0.3-0.1,0.4l1.6,3.3c0.1,0.1,0,0.3-0.1,0.5
		c-0.1,0.1-0.2,0.1-0.4,0.1l-3.3-1.7c-0.1-0.1-0.2,0-0.4,0.1l-2.6,2.7c-0.1,0.1-0.2,0.1-0.4,0.1C93,32.4,93,32.3,93,32.1l0.5-3.7
		c0-0.2,0-0.3-0.1-0.4l-3.3-1.7c-0.2,0-0.2-0.2-0.2-0.4c0.1-0.2,0.2-0.3,0.3-0.3l3.6-0.6c0.1,0,0.3-0.2,0.2-0.4L94.6,21.1z"/>
	<path id="XMLID_606_" class="st0" d="M308,160.2c-1.2,0-2.2,1-2.2,2.2c0,1.2,1,2.2,2.2,2.2c1.2,0,2.2-1,2.2-2.2
		C310.2,161.1,309.2,160.2,308,160.2L308,160.2z M76.4,160.2c-1.2,0-2.2,1-2.2,2.2c0,1.2,1,2.2,2.2,2.2c1.2,0,2.2-1,2.2-2.2
		C78.5,161.1,77.6,160.2,76.4,160.2z"/>
	<path id="XMLID_603_" class="st0" d="M241.6,196.5h7.8v1.3h-7.8V196.5L241.6,196.5z M135,196.5h7.8v1.3H135V196.5z"/>
	<path id="XMLID_599_" class="st0" d="M0,77.1l0.5,1.5c0,0,5.7-2.2,15.9-5.3c5.1-1.5,11.2-3.7,18.4-5.6c7.2-1.9,15.3-4.1,24.2-6.3
		c4.5-1,9.1-2,14-3c4.8-1,9.8-2.2,15-3c10.4-1.7,21.2-3.8,32.6-4.9c5.7-0.7,11.5-1.4,17.3-2c5.9-0.4,11.8-0.8,17.8-1.3
		c3-0.2,6-0.4,9-0.6c3-0.1,6.1-0.1,9.1-0.2c6.1-0.1,12.2-0.3,18.3-0.4c6.1,0.1,12.2,0.3,18.3,0.4c3,0.1,6.1,0.1,9.1,0.2
		c3,0.2,6,0.4,9,0.6c6,0.4,11.9,0.9,17.8,1.3c5.9,0.6,11.6,1.3,17.3,2c11.4,1.1,22.3,3.3,32.6,4.9c5.2,0.8,10.2,2,15,3
		c4.8,1,9.5,2,14,3c8.9,2.2,17,4.4,24.2,6.3c7.2,1.9,13.3,4.1,18.4,5.6c10.2,3.1,15.9,5.3,15.9,5.3l0.5-1.5c0,0-5.7-2.2-16-5.3
		c-5.1-1.5-11.3-3.7-18.5-5.6c-7.2-1.9-15.3-4.1-24.3-6.3c-4.5-1-9.2-2-14-3c-4.9-1-9.8-2.2-15-3c-10.4-1.7-21.3-3.8-32.7-4.9
		c-5.7-0.7-11.5-1.4-17.4-2c-5.9-0.4-11.9-0.8-17.9-1.3c-3-0.2-6-0.4-9-0.6c-3-0.1-6.1-0.1-9.1-0.2c-6.1-0.1-12.2-0.3-18.3-0.4
		c-6.1,0.1-12.2,0.3-18.3,0.4c-3,0.1-6.1,0.1-9.1,0.2c-3,0.2-6,0.4-9,0.6c-6,0.4-12,0.9-17.9,1.3c-5.9,0.6-11.7,1.3-17.4,2
		c-11.4,1.1-22.3,3.3-32.7,4.9c-5.2,0.8-10.2,2-15,3c-4.8,1-9.5,2.1-14,3c-8.9,2.2-17,4.4-24.3,6.3c-7.2,1.9-13.4,4.1-18.5,5.6
		C5.7,74.9,0,77.1,0,77.1z M270.3,123.9l-0.2,1.6c0,0,5.7,0.9,14.2,2.4c4.3,0.6,9.2,1.9,14.5,3c5.3,1.2,11,2.2,16.5,3.8
		c5.6,1.5,11.2,2.9,16.4,4.3c5.2,1.6,10,3.1,14.1,4.4c4.1,1.3,7.6,2.3,10,3.2c2.4,0.9,3.7,1.4,3.7,1.4l0.5-1.5c0,0-1.4-0.5-3.7-1.4
		c-2.4-0.9-5.9-1.9-10-3.2c-4.1-1.3-9-2.8-14.2-4.4c-5.2-1.4-10.8-2.9-16.4-4.3c-5.6-1.6-11.3-2.6-16.6-3.8
		c-5.3-1.1-10.2-2.4-14.5-3C276,124.8,270.3,123.9,270.3,123.9z M24.9,147.9c0,0,1.4-0.5,3.7-1.4c2.4-0.9,5.8-1.9,10-3.2
		c4.1-1.3,8.9-2.8,14.1-4.4c5.2-1.4,10.8-2.9,16.4-4.3c5.5-1.6,11.2-2.6,16.5-3.8c5.3-1.1,10.2-2.3,14.5-3
		c8.5-1.4,14.2-2.4,14.2-2.4l-0.2-1.6c0,0-5.7,0.9-14.3,2.4c-4.3,0.6-9.2,1.9-14.5,3c-5.3,1.2-11,2.2-16.6,3.8
		c-5.6,1.5-11.2,3-16.4,4.3c-5.2,1.6-10,3.1-14.2,4.4c-4.1,1.3-7.6,2.3-10,3.2c-2.4,0.9-3.7,1.4-3.7,1.4L24.9,147.9z"/>
	<g id="XMLID_16_">
		<path id="XMLID_49_" class="st1" d="M140.6,115.1c0.2,0,0.3,0.1,0.3,0.3l1.4,11.6c0,0.2-0.1,0.3-0.3,0.3l-1.4,0.2
			c-0.2,0-0.3-0.1-0.3-0.3l-0.8-6.8l-0.1,0l-0.7,7.1c0,0.2-0.1,0.3-0.3,0.3l-0.7,0.1c-0.2,0-0.3-0.1-0.4-0.2l-2.3-6.7l-0.1,0
			l0.8,6.8c0,0.2-0.1,0.3-0.3,0.3l-1.4,0.2c-0.2,0-0.3-0.1-0.3-0.3l-1.4-11.6c0-0.2,0.1-0.3,0.3-0.3l2-0.2c0.2,0,0.3,0.1,0.4,0.2
			l2.6,7.4l0.8-7.8c0-0.2,0.1-0.3,0.3-0.3L140.6,115.1z"/>
		<path id="XMLID_51_" class="st1" d="M153.6,126.3c-0.1,0-0.2-0.1-0.3-0.2l-0.6-2.2l-2.7,0.2l-0.3,2.3c0,0.1-0.1,0.2-0.2,0.2
			l-1.6,0.1c-0.2,0-0.3-0.1-0.2-0.2l1.7-11.9c0-0.2,0.1-0.2,0.2-0.2l2.1-0.2c0.1,0,0.2,0,0.3,0.2l3.4,11.6c0,0.2,0,0.3-0.2,0.3
			L153.6,126.3z M150.9,116.9l-0.6,5.4l2-0.1L150.9,116.9z"/>
		<path id="XMLID_54_" class="st1" d="M166.7,113.1c0.2,0,0.3,0.1,0.3,0.2l0.8,11.7c0,0.2-0.1,0.3-0.2,0.3l-1.5,0.1
			c-0.1,0-0.2,0-0.3-0.2l-2.8-6.4l-0.1,0l0.5,6.5c0,0.2-0.1,0.2-0.2,0.3l-1.6,0.1c-0.2,0-0.3-0.1-0.3-0.2l-0.8-11.7
			c0-0.2,0.1-0.3,0.2-0.3l1.5-0.1c0.1,0,0.2,0,0.3,0.2l2.8,6.3l0.1,0l-0.5-6.5c0-0.2,0.1-0.2,0.2-0.3L166.7,113.1z"/>
		<path id="XMLID_56_" class="st1" d="M179.6,116.6c0,0.2-0.1,0.2-0.2,0.3l-1.5,0c-0.2,0-0.2-0.1-0.3-0.2l0-1.2
			c0-0.4-0.2-0.6-0.6-0.6l-0.8,0c-0.4,0-0.6,0.2-0.6,0.6l0.2,7c0,0.4,0.2,0.6,0.6,0.6l0.8,0c0.4,0,0.6-0.2,0.6-0.6l0-1.2
			c0-0.2,0.1-0.2,0.2-0.3l1.5,0c0.2,0,0.2,0.1,0.3,0.2l0,1.7c0,1.4-0.7,2.2-2.2,2.3l-1.7,0c-1.4,0-2.2-0.7-2.3-2.2l-0.2-7.8
			c0-1.4,0.7-2.2,2.2-2.3l1.7,0c1.4,0,2.2,0.7,2.3,2.2L179.6,116.6z"/>
		<path id="XMLID_58_" class="st1" d="M189.6,112.7c0-0.2,0.1-0.2,0.2-0.3l1.6,0c0.2,0,0.3,0.1,0.3,0.2l0.3,11.8
			c0,0.2-0.1,0.2-0.3,0.3l-1.6,0c-0.2,0-0.2-0.1-0.3-0.2l-0.1-4.9l-2,0l0.1,4.9c0,0.2-0.1,0.2-0.2,0.3l-1.6,0
			c-0.2,0-0.3-0.1-0.3-0.2l-0.3-11.8c0-0.2,0.1-0.2,0.3-0.3l1.6,0c0.2,0,0.2,0.1,0.3,0.2l0.1,4.9l2,0L189.6,112.7z"/>
		<path id="XMLID_60_" class="st1" d="M204.2,114.5c0,0.2-0.1,0.3-0.3,0.3l-3.8-0.1l-0.1,3.1l2.9,0.1c0.2,0,0.2,0.1,0.2,0.3l0,1.5
			c0,0.2-0.1,0.3-0.3,0.3l-2.9-0.1l-0.1,3.1l3.8,0.1c0.2,0,0.2,0.1,0.2,0.3l0,1.5c0,0.2-0.1,0.2-0.2,0.2l-5.6-0.1
			c-0.1,0-0.2-0.1-0.2-0.2l0.3-11.8c0-0.2,0.1-0.2,0.2-0.2l5.6,0.1c0.2,0,0.2,0.1,0.2,0.2L204.2,114.5z"/>
		<path id="XMLID_63_" class="st1" d="M213.9,112.9c1.4,0,2.2,0.8,2.1,2.3l0,1.6c0,0.2-0.1,0.2-0.3,0.2l-1.6,0
			c-0.2,0-0.2-0.1-0.2-0.3l0-1.2c0-0.4-0.2-0.6-0.6-0.6l-0.7,0c-0.4,0-0.6,0.2-0.6,0.6l-0.1,2.1l3.6,1.3c0.3,0.1,0.4,0.3,0.4,0.6
			l-0.1,3.5c0,1.4-0.8,2.2-2.3,2.1l-1.7-0.1c-1.4,0-2.2-0.8-2.1-2.3l0-1.6c0-0.2,0.1-0.2,0.3-0.2l1.6,0c0.2,0,0.2,0.1,0.2,0.3l0,1.2
			c0,0.4,0.2,0.6,0.6,0.6l0.7,0c0.4,0,0.6-0.2,0.6-0.6l0.1-2l-3.6-1.3c-0.3-0.1-0.4-0.3-0.4-0.6l0.1-3.6c0-1.4,0.8-2.2,2.3-2.1
			L213.9,112.9z"/>
		<path id="XMLID_65_" class="st1" d="M227.7,113.8c0.2,0,0.2,0.1,0.2,0.3l-0.1,1.5c0,0.2-0.1,0.2-0.3,0.2l-1.8-0.1l-0.7,10
			c0,0.2-0.1,0.2-0.3,0.2l-1.6-0.1c-0.2,0-0.2-0.1-0.2-0.3l0.7-10l-1.8-0.1c-0.2,0-0.2-0.1-0.2-0.3l0.1-1.5c0-0.2,0.1-0.2,0.3-0.2
			L227.7,113.8z"/>
		<path id="XMLID_67_" class="st1" d="M239.6,116.4c0,0.2-0.1,0.3-0.3,0.2l-3.8-0.3l-0.2,3.1l2.9,0.2c0.2,0,0.2,0.1,0.2,0.3
			l-0.1,1.5c0,0.2-0.1,0.3-0.3,0.2l-2.9-0.2l-0.2,3.1l3.8,0.3c0.2,0,0.2,0.1,0.2,0.3l-0.1,1.5c0,0.2-0.1,0.2-0.3,0.2l-5.6-0.4
			c-0.1,0-0.2-0.1-0.2-0.3l0.8-11.7c0-0.2,0.1-0.2,0.2-0.2l5.6,0.4c0.2,0,0.2,0.1,0.2,0.3L239.6,116.4z"/>
		<path id="XMLID_69_" class="st1" d="M251.5,122c-0.1,1-0.6,1.6-1.3,1.9l0.6,4.1c0,0.2-0.1,0.3-0.2,0.2l-1.6-0.2
			c-0.2,0-0.2-0.1-0.2-0.2l-0.6-4l-1-0.1l-0.5,3.8c0,0.2-0.1,0.2-0.3,0.2l-1.6-0.2c-0.2,0-0.2-0.1-0.2-0.3l1.4-11.7
			c0-0.2,0.1-0.2,0.3-0.2l3.8,0.5c1.4,0.2,2.1,1,1.9,2.5L251.5,122z M248.8,121.8c0.4,0,0.6-0.1,0.7-0.5l0.3-2.9
			c0-0.4-0.1-0.6-0.5-0.7l-1.5-0.2l-0.5,4.1L248.8,121.8z"/>
	</g>
	<path id="XMLID_596_" class="st0" d="M93.3,149.6h197.9h11.4l-4.1,12.7l4.1,12.7h-11.4H93.3H81.9l4.1-12.7l-4.1-12.7H93.3z
		 M97.8,155.8v0.5l0.6,0.5v9.9l-0.7,0.5v0.5h3.7c2,0,3.4-1,3.4-3.1v-5.7c0-2.2-1.4-3.1-3.4-3.1H97.8z M101.3,156.8
		c1.3,0,1.7,0.9,1.7,2v5.7c0,1.1-0.4,2-1.7,2.1h-1.5l0-0.1c0.3-0.1,0.4-0.2,0.4-0.5v-9.2H101.3z M118.5,167.7v-2.7h-0.7l-0.6,1.6
		c-1,0-1.9,0-2.9,0v-0.1c0.3-0.1,0.4-0.3,0.4-0.5c0-1.3,0-2.5,0-3.8h1.6l0.4,0.9h0.5c0-0.8,0-2,0-2.9h-0.5l-0.4,0.9h-1.6
		c0-1.5,0-3,0-4.5h2.3l0.5,1.7h0.9v-2.7c-2.1,0-4,0-6.1,0v0.4l0.6,0.4c0,3.3,0,6.7,0,10l-0.8,0.5v0.5
		C114.3,167.7,116.4,167.7,118.5,167.7z M129.4,165.7l-2.1-9l0.6-0.5v-0.4h-3.1v0.5l0.6,0.4l2.7,11.1h1.7l2.7-11.2l0.6-0.3v-0.5
		h-2.3v0.5l0.6,0.3L129.4,165.7L129.4,165.7z M145.9,167.7v-2.7h-0.7l-0.6,1.6c-1,0-1.9,0-2.9,0v-0.1c0.3-0.1,0.4-0.3,0.4-0.5
		c0-1.3,0-2.5,0-3.8h1.6l0.4,0.9h0.5c0-0.8,0-2,0-2.9h-0.5l-0.4,0.9h-1.6c0-1.5,0-3,0-4.5h2.3l0.5,1.7h0.9v-2.7c-2.1,0-4,0-6.1,0
		v0.4l0.6,0.4c0,3.3,0,6.7,0,10l-0.8,0.5v0.5C141.7,167.7,143.8,167.7,145.9,167.7z M159.1,167.7v-2.7h-0.7l-0.6,1.6
		c-1,0-1.8,0-2.7,0v-0.1c0.3-0.1,0.4-0.3,0.4-0.5c0-3.1,0-6.2,0-9.3l0.6-0.4v-0.5H153v0.5l0.6,0.4c0,3.3,0,6.7,0,10l-0.8,0.5v0.5
		C155,167.7,157,167.7,159.1,167.7z M172.9,158.8c0-1.9-1.3-3.2-3.4-3.2c-2.1,0-3.4,1.3-3.4,3.2v5.9c0,1.9,1.3,3.2,3.4,3.2
		c2.1,0,3.4-1.3,3.4-3.2V158.8z M167.9,158.8c0-1.3,0.5-2,1.6-2c1.1,0,1.7,0.9,1.7,2v5.9c0,1.1-0.5,2-1.7,2c-1.1,0-1.6-0.7-1.6-2
		V158.8z M187.2,158.6c0-2.1-1.5-2.8-3.4-2.8h-3.5v0.5l0.6,0.4c0,3.3,0,6.7,0,10l-0.8,0.5v0.5c1,0,2.3,0,3.2,0v-0.5l-0.7-0.5
		c0-1.1,0-2.2,0-3.3h1.1c1.9,0,3.4-0.6,3.4-2.7V158.6z M183.9,156.9c1.2,0,1.6,0.6,1.6,1.7v2.1c0,1.1-0.4,1.7-1.6,1.7h-1.1
		c0-1.8,0-3.7,0-5.6H183.9z M200.5,167.7v-2.7h-0.7l-0.6,1.6c-1,0-1.9,0-2.9,0v-0.1c0.3-0.1,0.4-0.3,0.4-0.5c0-1.3,0-2.5,0-3.8h1.6
		l0.4,0.9h0.5c0-0.8,0-2,0-2.9h-0.5l-0.4,0.9h-1.6c0-1.5,0-3,0-4.5h2.3l0.5,1.7h0.9v-2.7c-2.1,0-4,0-6.1,0v0.4l0.6,0.4
		c0,3.3,0,6.7,0,10l-0.8,0.5v0.5C196.2,167.7,198.4,167.7,200.5,167.7z M212.4,166.2c0.3,0.9,0.4,1.7,1.5,1.7c0.4,0,0.9-0.1,1.2-0.2
		v-0.7c-0.5,0.1-0.9-0.5-1-1l-0.8-2.2c-0.2-0.5-0.4-0.9-0.9-1.1c1.1-0.2,1.9-1,1.9-2.5v-1.5c0-2.1-1.5-2.8-3.3-2.8h-3.5v0.5l0.6,0.4
		c0,3.3,0,6.7,0,10l-0.7,0.5v0.5c1,0,2.2,0,3.2,0v-0.5l-0.7-0.5c0-1.1,0-2.8,0-3.9c1,0,1.3,0.2,1.7,1.2L212.4,166.2z M211,156.9
		c1.2,0,1.6,0.6,1.6,1.7v1.5c0,1.1-0.4,1.7-1.6,1.7h-1.1c0-1.9,0-3.1,0-5H211z M223.7,165.3v-1h-1.9v0.9c0,1.8,1.4,2.6,3,2.6
		c1.6,0,3.2-0.7,3.2-2.6v-1.5c0-3.2-4.3-2.2-4.3-4.3v-1.4c0-0.8,0.4-1.3,1.2-1.3c0.8,0,1.3,0.5,1.3,1.3v0.9h1.8c0-1.1,0-2.1,0-3.2
		h-1.2l-0.1,0.6h-0.1c-0.6-0.6-1.3-0.8-1.9-0.8c-1.4,0-2.7,0.7-2.7,2.5v1.4c0,3,4.3,2.1,4.3,4.3v1.4c0,0.9-0.4,1.4-1.3,1.4
		C224.2,166.8,223.7,166.3,223.7,165.3z M245.5,163.3c0-1.1-0.5-1.7-1.3-2c0.6-0.3,1-0.9,1-1.6V158c0-1.8-1.1-2.2-2.7-2.2h-3.8v0.5
		l0.6,0.4c0,3.3,0,6.7,0,10l-0.8,0.5v0.5h3.9c2,0,3-0.7,3-2.4V163.3z M240.7,166.7L240.7,166.7c0.3-0.2,0.4-0.3,0.4-0.6
		c0-1.3,0-2.9,0-4.2h1.2c1.1,0,1.4,0.5,1.4,1.5v2c0,0.9-0.4,1.4-1.3,1.4H240.7z M242.3,161c-0.5,0-0.8,0-1.3,0c0-1.5,0-2.7,0-4.2
		h1.3c0.7,0,1.1,0.5,1.1,1.2v1.7C243.4,160.5,243.1,161,242.3,161z M258.9,167.7v-2.7h-0.7l-0.6,1.6c-1,0-1.8,0-2.7,0v-0.1
		c0.3-0.1,0.4-0.3,0.4-0.5c0-3.1,0-6.2,0-9.3l0.6-0.4v-0.5h-3.1v0.5l0.6,0.4c0,3.3,0,6.7,0,10l-0.8,0.5v0.5
		C254.8,167.7,256.7,167.7,258.9,167.7z M272.7,158.8c0-1.9-1.3-3.2-3.4-3.2c-2.1,0-3.4,1.3-3.4,3.2v5.9c0,1.9,1.3,3.2,3.4,3.2
		c2.1,0,3.4-1.3,3.4-3.2V158.8z M267.6,158.8c0-1.3,0.5-2,1.6-2c1.1,0,1.7,0.9,1.7,2v5.9c0,1.1-0.5,2-1.7,2c-1.1,0-1.6-0.7-1.6-2
		V158.8z M282.1,158.9c0-1.5,0.7-2,1.5-2c0.8,0,1.6,0.4,1.6,1.4v0.9h1.8v-3.3h-1.2l-0.1,0.6h-0.1c-0.5-0.6-1.3-0.7-2-0.7
		c-1.6,0-3.3,1-3.3,3.2c0,1.9,0,3.9,0,5.8c0,2.1,1.4,3.2,3.4,3.2c0.8,0,1.6-0.3,2-1l0.2,0.9h1.1c0-1.7,0-3.5,0-5.2h-2.8v0.5l1,0.6
		v1.3c0,1.1-0.4,1.8-1.6,1.8c-1,0-1.6-0.6-1.6-2C282.1,162.8,282.1,160.8,282.1,158.9z"/>
	<g id="XMLID_61_">
		<path id="XMLID_72_" class="st2" d="M161.3,194.9v1.3H158v1.4h3v1.3h-3v1.4h3.5v1.3h-5v-6.8H161.3z"/>
		<path id="XMLID_74_" class="st2" d="M168.3,196.3c-0.1,0.1-0.2,0.3-0.2,0.5c0,0.2,0.1,0.4,0.3,0.5c0.2,0.1,0.6,0.3,1.2,0.4
			c0.6,0.2,1.1,0.4,1.5,0.7c0.4,0.3,0.5,0.8,0.5,1.4s-0.2,1.1-0.7,1.5c-0.5,0.4-1.1,0.6-1.8,0.6c-1.1,0-2-0.4-2.9-1.2l0.9-1.1
			c0.7,0.6,1.4,1,2,1c0.3,0,0.5-0.1,0.7-0.2c0.2-0.1,0.2-0.3,0.2-0.5c0-0.2-0.1-0.4-0.3-0.5s-0.5-0.2-1-0.4
			c-0.8-0.2-1.4-0.4-1.7-0.7s-0.5-0.8-0.5-1.4c0-0.6,0.2-1.1,0.7-1.5c0.5-0.3,1-0.5,1.7-0.5c0.5,0,0.9,0.1,1.4,0.2
			c0.5,0.2,0.8,0.4,1.2,0.7l-0.8,1.1c-0.6-0.4-1.2-0.7-1.8-0.7C168.7,196.1,168.5,196.1,168.3,196.3z"/>
		<path id="XMLID_76_" class="st2" d="M179.7,196.2v5.5h-1.5v-5.5h-1.9v-1.3h5.3v1.3H179.7z"/>
		<path id="XMLID_78_" class="st2" d="M186.2,201.5c-0.2-0.2-0.2-0.4-0.2-0.6c0-0.2,0.1-0.4,0.2-0.6c0.2-0.2,0.4-0.2,0.6-0.2
			c0.2,0,0.4,0.1,0.6,0.2c0.2,0.2,0.2,0.4,0.2,0.6c0,0.2-0.1,0.4-0.2,0.6c-0.2,0.2-0.4,0.2-0.6,0.2
			C186.5,201.8,186.3,201.7,186.2,201.5z"/>
		<path id="XMLID_80_" class="st2" d="M198.1,197.5c0.2-0.2,0.3-0.5,0.3-0.7c0-0.2-0.1-0.4-0.2-0.6c-0.1-0.2-0.3-0.2-0.6-0.2
			c-0.4,0-0.8,0.3-1.2,0.9l-1.2-0.7c0.3-0.5,0.7-0.9,1-1.1c0.4-0.3,0.9-0.4,1.4-0.4s1.1,0.2,1.5,0.6s0.7,0.9,0.7,1.5
			c0,0.3-0.1,0.7-0.3,1c-0.2,0.3-0.5,0.7-1,1.2l-1.2,1.3h2.7v1.4h-4.8v-1.1l2-2C197.6,198.1,197.9,197.8,198.1,197.5z"/>
		<path id="XMLID_82_" class="st2" d="M207.9,201.8c-0.9,0-1.6-0.3-2.1-1c-0.5-0.6-0.7-1.5-0.7-2.5s0.2-1.9,0.7-2.5
			c0.5-0.6,1.2-1,2.1-1s1.6,0.3,2.1,1s0.7,1.5,0.7,2.5s-0.2,1.9-0.7,2.5S208.8,201.8,207.9,201.8z M206.9,196.6
			c-0.2,0.4-0.3,1-0.3,1.6s0.1,1.2,0.3,1.6c0.2,0.4,0.5,0.6,1,0.6c0.5,0,0.8-0.2,1-0.6c0.2-0.4,0.3-1,0.3-1.6s-0.1-1.2-0.3-1.6
			s-0.5-0.6-1-0.6C207.4,196,207.1,196.2,206.9,196.6z"/>
		<path id="XMLID_85_" class="st2" d="M215.5,194.9h2.7v6.8h-1.5v-5.5h-1.3V194.9z"/>
		<path id="XMLID_87_" class="st2" d="M223.8,196.2v-1.3h4.1v1l-1.4,1.6c0.5,0.1,1,0.3,1.3,0.7c0.3,0.4,0.4,0.8,0.4,1.3
			c0,0.7-0.2,1.3-0.7,1.7s-1.1,0.6-1.8,0.6c-0.7,0-1.5-0.3-2.3-0.8l0.6-1.2c0.6,0.5,1.2,0.7,1.7,0.7c0.3,0,0.6-0.1,0.8-0.2
			c0.2-0.1,0.3-0.4,0.3-0.6c0-0.3-0.1-0.5-0.3-0.7c-0.2-0.2-0.5-0.2-0.9-0.2c-0.2,0-0.5,0.1-0.9,0.2v-1.1l1.3-1.5H223.8z"/>
	</g>
	<g id="XMLID_14_">
		<path id="XMLID_15_" class="st2" d="M27.9,99.6c0.2,0.5,0,0.9-0.5,1l-4.8,1.5c-0.5,0.2-0.9,0-1-0.5l-1.2-3.8
			c-0.4-1.2-1.3-1.7-2.5-1.3l-2.5,0.8c-1.3,0.4-1.7,1.3-1.3,2.5l6.9,21.8c0.4,1.3,1.3,1.7,2.5,1.3l2.5-0.8c1.2-0.4,1.7-1.2,1.3-2.5
			l-1.2-3.8c-0.2-0.5,0-0.8,0.5-1l4.8-1.5c0.5-0.2,0.9,0,1,0.5l1.6,5.2c1.4,4.5-0.3,7.7-4.7,9.1l-5.4,1.7c-4.5,1.4-7.7-0.2-9.1-4.7
			l-7.7-24.5c-1.4-4.5,0.3-7.7,4.8-9.1l5.4-1.7c4.4-1.4,7.6,0.2,9.1,4.7L27.9,99.6z"/>
		<path id="XMLID_18_" class="st2" d="M55.8,98.7c0.9,3.2,0.2,5.7-1.8,7.3l6.7,11.8c0.3,0.5,0.1,0.9-0.4,1.1l-5,1.3
			c-0.5,0.1-0.8,0-1-0.5l-6.5-11.5l-3.3,0.9l3.2,12.2c0.1,0.5-0.1,0.9-0.6,1l-5,1.3c-0.5,0.1-0.9-0.1-1-0.6l-9.9-37.2
			c-0.1-0.5,0.1-0.9,0.6-1l12.2-3.2c4.6-1.2,7.6,0.6,8.8,5.1L55.8,98.7z M47.4,101.5c1.3-0.3,1.8-1.2,1.4-2.5L46.4,90
			c-0.3-1.3-1.2-1.8-2.5-1.4l-4.8,1.3l3.4,13L47.4,101.5z"/>
		<path id="XMLID_22_" class="st2" d="M78.3,79.3c0.1,0.5,0,0.9-0.6,1L65.5,83l2.2,9.8l9.3-2.1c0.5-0.1,0.8,0.1,1,0.7l1.1,4.8
			c0.1,0.5-0.1,0.9-0.6,1l-9.3,2.1l2.2,9.9l12.2-2.8c0.6-0.1,0.8,0.1,1,0.6l1.1,4.9c0.1,0.5,0,0.8-0.6,1l-18,4.1
			c-0.4,0.1-0.8-0.1-0.9-0.6l-8.5-37.6c-0.1-0.5,0.1-0.8,0.6-0.9l18-4.1c0.6-0.1,0.8,0.1,1,0.6L78.3,79.3z"/>
		<path id="XMLID_24_" class="st2" d="M108.2,108.7c-0.4,0.1-0.7-0.1-0.9-0.6l-2.6-7l-8.8,1.5l-0.1,7.4c0,0.5-0.2,0.8-0.7,0.8
			l-5.3,0.9c-0.5,0.1-0.8-0.2-0.8-0.7l1.6-39.4c0-0.5,0.3-0.8,0.7-0.8l6.9-1.2c0.4-0.1,0.8,0.1,1,0.5l14.8,36.6c0.2,0.5,0,0.9-0.5,1
			L108.2,108.7z M96.2,79L96,96.8l6.3-1.1L96.2,79z"/>
		<path id="XMLID_27_" class="st2" d="M127.9,65.4c0.5-0.1,0.8,0.2,0.9,0.7l0.6,5c0.1,0.5-0.1,0.8-0.7,0.9l-5.8,0.8l4.2,32.4
			c0.1,0.5-0.1,0.8-0.7,0.9l-5.2,0.7c-0.5,0.1-0.8-0.1-0.9-0.7l-4.2-32.4l-5.8,0.8c-0.5,0.1-0.8-0.2-0.9-0.7l-0.6-5
			c-0.1-0.5,0.2-0.8,0.7-0.9L127.9,65.4z"/>
		<path id="XMLID_29_" class="st2" d="M140.7,64.2c0.5,0,0.8,0.2,0.9,0.7l3.6,38.3c0,0.5-0.2,0.8-0.7,0.9l-5.2,0.5
			c-0.5,0.1-0.8-0.2-0.9-0.7l-3.6-38.3c0-0.5,0.2-0.8,0.7-0.9L140.7,64.2z"/>
		<path id="XMLID_31_" class="st2" d="M169.6,62.2c0.8,0,1.1,0.3,1,1l-6.2,38.5c-0.1,0.6-0.4,0.9-1,1l-5,0.3c-0.6,0-1-0.2-1.2-0.8
			l-10.6-37.6c-0.2-0.7,0.1-1.1,0.8-1.2l4.8-0.3c0.6,0,1,0.2,1.2,0.8l6.8,26.5l3.7-27.1c0.1-0.6,0.4-0.9,1-1L169.6,62.2z"/>
		<path id="XMLID_33_" class="st2" d="M196.7,67.5c0,0.5-0.2,0.9-0.8,0.9l-12.5,0.2l0.2,10l9.6-0.2c0.5,0,0.8,0.3,0.8,0.8l0.1,5
			c0,0.6-0.3,0.9-0.8,0.9l-9.6,0.2l0.2,10.1l12.5-0.2c0.6,0,0.8,0.2,0.8,0.8l0.1,5c0,0.5-0.2,0.8-0.8,0.8l-18.5,0.3
			c-0.5,0-0.8-0.3-0.8-0.8l-0.7-38.5c0-0.5,0.3-0.8,0.7-0.8l18.5-0.3c0.6,0,0.8,0.3,0.8,0.8L196.7,67.5z"/>
		<path id="XMLID_35_" class="st2" d="M238.9,63.7c0.5,0,0.8,0.4,0.7,0.9l-2.4,38.4c0,0.5-0.4,0.8-0.9,0.7l-5-0.3
			c-0.5,0-0.7-0.2-0.9-0.7l-6.3-21.9l-0.3,0l-1.4,21.2c0,0.5-0.3,0.8-0.9,0.8l-5.2-0.3c-0.5,0-0.8-0.4-0.7-0.9l2.4-38.4
			c0-0.5,0.4-0.8,0.9-0.7l5,0.3c0.5,0,0.7,0.2,0.9,0.7l6.3,21.8l0.3,0l1.3-21.1c0-0.5,0.3-0.8,0.9-0.7L238.9,63.7z"/>
		<path id="XMLID_37_" class="st2" d="M252.6,65.1c0.5,0,0.8,0.4,0.7,0.9l-3.8,38.3c0,0.5-0.4,0.8-0.9,0.7l-5.2-0.5
			c-0.5-0.1-0.8-0.4-0.7-0.9l3.8-38.3c0-0.5,0.3-0.8,0.9-0.7L252.6,65.1z"/>
		<path id="XMLID_39_" class="st2" d="M259.6,72.9c0.7-4.7,3.5-6.8,8.2-6.1l6.5,1c4.6,0.7,6.8,3.5,6.1,8.2l-0.8,5.2
			c-0.1,0.5-0.4,0.7-0.9,0.7l-5-0.7c-0.5-0.1-0.7-0.4-0.7-0.9l0.6-3.8c0.2-1.3-0.4-2.1-1.7-2.3l-3.6-0.5c-1.3-0.2-2.1,0.4-2.3,1.7
			l-3.4,22.6c-0.2,1.3,0.4,2.1,1.7,2.3l3.6,0.5c1.3,0.2,2.1-0.3,2.3-1.7l1-6.6l-2.6-0.4c-0.5-0.1-0.8-0.4-0.7-0.9l0.7-5
			c0.1-0.5,0.4-0.8,0.9-0.7l8.3,1.2c0.5,0.1,0.8,0.4,0.7,0.9l-2.1,13.8c-0.7,4.7-3.6,6.8-8.2,6.1l-6.5-1c-4.7-0.7-6.8-3.5-6.1-8.2
			L259.6,72.9z"/>
		<path id="XMLID_41_" class="st2" d="M301.3,73.3c0.1-0.5,0.4-0.7,0.9-0.6l5.1,1c0.6,0.1,0.8,0.5,0.7,0.9l-7.1,37.8
			c-0.1,0.5-0.4,0.7-1,0.6l-5.1-1c-0.5-0.1-0.7-0.4-0.6-0.9l3-15.7l-6.3-1.2l-3,15.7c-0.1,0.5-0.4,0.7-0.9,0.6l-5.1-1
			c-0.6-0.1-0.8-0.5-0.7-0.9l7.1-37.8c0.1-0.5,0.4-0.7,1-0.6l5.1,1c0.5,0.1,0.7,0.4,0.6,0.9l-3,15.7l6.3,1.2L301.3,73.3z"/>
		<path id="XMLID_43_" class="st2" d="M333,79.6c0.5,0.1,0.7,0.5,0.6,1l-1.2,4.9c-0.1,0.5-0.4,0.7-1,0.6l-5.7-1.4l-7.7,31.8
			c-0.1,0.5-0.4,0.7-1,0.6l-5.1-1.2c-0.5-0.1-0.7-0.4-0.6-1l7.7-31.8l-5.7-1.4c-0.5-0.1-0.7-0.5-0.6-1l1.2-4.9
			c0.1-0.5,0.5-0.7,1-0.6L333,79.6z"/>
		<path id="XMLID_45_" class="st2" d="M336.7,115.2l11.4,3.6c0.5,0.2,0.7,0.5,0.5,1l-1.5,4.8c-0.2,0.5-0.5,0.7-1,0.5l-17.1-5.4
			c-0.5-0.2-0.7-0.5-0.5-1L340,82c0.2-0.5,0.5-0.7,1-0.5l5,1.6c0.5,0.2,0.7,0.5,0.5,1L336.7,115.2z"/>
		<path id="XMLID_47_" class="st2" d="M380.1,93.8c0.7,0.2,0.9,0.8,0.4,1.3l-15.4,18.5l-4.7,14.9c-0.2,0.6-0.6,0.9-1.3,0.7l-4.6-1.4
			c-0.6-0.2-0.9-0.6-0.7-1.3l4.7-14.9l-2.1-24c-0.1-0.8,0.4-1.1,1.1-0.9l4.8,1.5c0.6,0.2,0.8,0.5,0.9,1.1l1,15.4l9.7-12
			c0.4-0.5,0.8-0.6,1.3-0.4L380.1,93.8z"/>
	</g>
	<path id="XMLID_591_" class="st3" d="M180.4,16L192,0.3c0.1-0.2,0.3-0.3,0.5-0.3c0.2,0,0.4,0.1,0.5,0.3L204.6,16l4.5-3.5
		c0.1-0.1,0.3-0.2,0.5-0.1c0.2,0,0.3,0.1,0.4,0.3l9.1,12.3c0.1,0.1,0.1,0.3,0,0.4c-0.1,0.1-0.3,0.1-0.4,0l-8.1-7.9l2,4.7
		c0.1,0.1,0,0.3-0.1,0.4c-0.1,0.1-0.3,0.1-0.4,0l-4.4-4.6l-0.2,4.3c0,0.1-0.1,0.2-0.2,0.3c-0.1,0-0.3,0-0.4-0.1L196.3,9.9l2.7,7
		c0.1,0.2,0,0.3-0.1,0.4c-0.1,0.1-0.3,0-0.4-0.1l-3.6-4.8l-2,8.6c0,0.1-0.2,0.2-0.3,0.2c-0.2,0-0.3-0.1-0.3-0.2l-2-8.6l-3.6,4.8
		c-0.1,0.1-0.3,0.2-0.4,0.1c-0.1-0.1-0.2-0.2-0.1-0.4l2.7-7l-10.5,12.5c-0.1,0.1-0.2,0.1-0.4,0.1c-0.1,0-0.2-0.2-0.2-0.3l-0.2-4.3
		l-4.4,4.6c-0.1,0.1-0.3,0.1-0.4,0c-0.1-0.1-0.2-0.3-0.1-0.4l2-4.7l-8.1,7.9c-0.1,0.1-0.3,0.1-0.4,0c-0.1-0.1-0.1-0.3,0-0.4
		l9.1-12.3c0.1-0.1,0.3-0.2,0.4-0.3c0.2,0,0.3,0,0.5,0.1L180.4,16z"/>
</g>
</svg>
